TITLE ""
FILE "TOEIC LR Kinnojyukugo_09.mp3" MP3
  TRACK 01 AUDIO
    TITLE "TOEIC LR Kinnojyukugo_09_001"
    INDEX 01 00:00:00
  TRACK 02 AUDIO
    TITLE "TOEIC LR Kinnojyukugo_09_002"
    INDEX 01 00:00:12
  TRACK 03 AUDIO
    TITLE "TOEIC LR Kinnojyukugo_09_003"
    INDEX 01 00:01:35
  TRACK 04 AUDIO
    TITLE "TOEIC LR Kinnojyukugo_09_004"
    INDEX 01 00:01:72
  TRACK 05 AUDIO
    TITLE "TOEIC LR Kinnojyukugo_09_005"
    INDEX 01 00:03:34
  TRACK 06 AUDIO
    TITLE "TOEIC LR Kinnojyukugo_09_006"
    INDEX 01 00:04:02
  TRACK 07 AUDIO
    TITLE "TOEIC LR Kinnojyukugo_09_007"
    INDEX 01 00:05:66
  TRACK 08 AUDIO
    TITLE "TOEIC LR Kinnojyukugo_09_008"
    INDEX 01 00:06:32
  TRACK 09 AUDIO
    TITLE "TOEIC LR Kinnojyukugo_09_009"
    INDEX 01 00:08:39
  TRACK 10 AUDIO
    TITLE "TOEIC LR Kinnojyukugo_09_010"
    INDEX 01 00:08:65
  TRACK 11 AUDIO
    TITLE "TOEIC LR Kinnojyukugo_09_011"
    INDEX 01 00:10:73
  TRACK 12 AUDIO
    TITLE "TOEIC LR Kinnojyukugo_09_012"
    INDEX 01 00:11:73
  TRACK 13 AUDIO
    TITLE "TOEIC LR Kinnojyukugo_09_013"
    INDEX 01 00:13:11
  TRACK 14 AUDIO
    TITLE "TOEIC LR Kinnojyukugo_09_014"
    INDEX 01 00:13:50
  TRACK 15 AUDIO
    TITLE "TOEIC LR Kinnojyukugo_09_015"
    INDEX 01 00:15:26
  TRACK 16 AUDIO
    TITLE "TOEIC LR Kinnojyukugo_09_016"
    INDEX 01 00:15:65
  TRACK 17 AUDIO
    TITLE "TOEIC LR Kinnojyukugo_09_017"
    INDEX 01 00:18:34
  TRACK 18 AUDIO
    TITLE "TOEIC LR Kinnojyukugo_09_018"
    INDEX 01 00:18:73
  TRACK 19 AUDIO
    TITLE "TOEIC LR Kinnojyukugo_09_019"
    INDEX 01 00:21:32
  TRACK 20 AUDIO
    TITLE "TOEIC LR Kinnojyukugo_09_020"
    INDEX 01 00:21:59
  TRACK 21 AUDIO
    TITLE "TOEIC LR Kinnojyukugo_09_021"
    INDEX 01 00:24:21
  TRACK 22 AUDIO
    TITLE "TOEIC LR Kinnojyukugo_09_022"
    INDEX 01 00:25:22
  TRACK 23 AUDIO
    TITLE "TOEIC LR Kinnojyukugo_09_023"
    INDEX 01 00:26:45
  TRACK 24 AUDIO
    TITLE "TOEIC LR Kinnojyukugo_09_024"
    INDEX 01 00:27:07
  TRACK 25 AUDIO
    TITLE "TOEIC LR Kinnojyukugo_09_025"
    INDEX 01 00:28:14
  TRACK 26 AUDIO
    TITLE "TOEIC LR Kinnojyukugo_09_026"
    INDEX 01 00:28:56
  TRACK 27 AUDIO
    TITLE "TOEIC LR Kinnojyukugo_09_027"
    INDEX 01 00:31:01
  TRACK 28 AUDIO
    TITLE "TOEIC LR Kinnojyukugo_09_028"
    INDEX 01 00:31:40
  TRACK 29 AUDIO
    TITLE "TOEIC LR Kinnojyukugo_09_029"
    INDEX 01 00:33:67
  TRACK 30 AUDIO
    TITLE "TOEIC LR Kinnojyukugo_09_030"
    INDEX 01 00:34:17
  TRACK 31 AUDIO
    TITLE "TOEIC LR Kinnojyukugo_09_031"
    INDEX 01 00:36:43
  TRACK 32 AUDIO
    TITLE "TOEIC LR Kinnojyukugo_09_032"
    INDEX 01 00:37:45
  TRACK 33 AUDIO
    TITLE "TOEIC LR Kinnojyukugo_09_033"
    INDEX 01 00:38:42
  TRACK 34 AUDIO
    TITLE "TOEIC LR Kinnojyukugo_09_034"
    INDEX 01 00:39:03
  TRACK 35 AUDIO
    TITLE "TOEIC LR Kinnojyukugo_09_035"
    INDEX 01 00:40:14
  TRACK 36 AUDIO
    TITLE "TOEIC LR Kinnojyukugo_09_036"
    INDEX 01 00:40:55
  TRACK 37 AUDIO
    TITLE "TOEIC LR Kinnojyukugo_09_037"
    INDEX 01 00:43:28
  TRACK 38 AUDIO
    TITLE "TOEIC LR Kinnojyukugo_09_038"
    INDEX 01 00:43:65
  TRACK 39 AUDIO
    TITLE "TOEIC LR Kinnojyukugo_09_039"
    INDEX 01 00:46:01
  TRACK 40 AUDIO
    TITLE "TOEIC LR Kinnojyukugo_09_040"
    INDEX 01 00:46:26
  TRACK 41 AUDIO
    TITLE "TOEIC LR Kinnojyukugo_09_041"
    INDEX 01 00:48:39
  TRACK 42 AUDIO
    TITLE "TOEIC LR Kinnojyukugo_09_042"
    INDEX 01 00:49:40
  TRACK 43 AUDIO
    TITLE "TOEIC LR Kinnojyukugo_09_043"
    INDEX 01 00:50:34
  TRACK 44 AUDIO
    TITLE "TOEIC LR Kinnojyukugo_09_044"
    INDEX 01 00:50:75
  TRACK 45 AUDIO
    TITLE "TOEIC LR Kinnojyukugo_09_045"
    INDEX 01 00:53:14
  TRACK 46 AUDIO
    TITLE "TOEIC LR Kinnojyukugo_09_046"
    INDEX 01 00:53:59
  TRACK 47 AUDIO
    TITLE "TOEIC LR Kinnojyukugo_09_047"
    INDEX 01 00:55:74
  TRACK 48 AUDIO
    TITLE "TOEIC LR Kinnojyukugo_09_048"
    INDEX 01 00:56:36
  TRACK 49 AUDIO
    TITLE "TOEIC LR Kinnojyukugo_09_049"
    INDEX 01 00:58:67
  TRACK 50 AUDIO
    TITLE "TOEIC LR Kinnojyukugo_09_050"
    INDEX 01 00:59:17
  TRACK 51 AUDIO
    TITLE "TOEIC LR Kinnojyukugo_09_051"
    INDEX 01 01:01:45
  TRACK 52 AUDIO
    TITLE "TOEIC LR Kinnojyukugo_09_052"
    INDEX 01 01:02:49
  TRACK 53 AUDIO
    TITLE "TOEIC LR Kinnojyukugo_09_053"
    INDEX 01 01:03:60
  TRACK 54 AUDIO
    TITLE "TOEIC LR Kinnojyukugo_09_054"
    INDEX 01 01:04:22
  TRACK 55 AUDIO
    TITLE "TOEIC LR Kinnojyukugo_09_055"
    INDEX 01 01:07:03
  TRACK 56 AUDIO
    TITLE "TOEIC LR Kinnojyukugo_09_056"
    INDEX 01 01:07:42
  TRACK 57 AUDIO
    TITLE "TOEIC LR Kinnojyukugo_09_057"
    INDEX 01 01:10:25
  TRACK 58 AUDIO
    TITLE "TOEIC LR Kinnojyukugo_09_058"
    INDEX 01 01:10:64
  TRACK 59 AUDIO
    TITLE "TOEIC LR Kinnojyukugo_09_059"
    INDEX 01 01:14:18
  TRACK 60 AUDIO
    TITLE "TOEIC LR Kinnojyukugo_09_060"
    INDEX 01 01:14:42
  TRACK 61 AUDIO
    TITLE "TOEIC LR Kinnojyukugo_09_061"
    INDEX 01 01:17:74
  TRACK 62 AUDIO
    TITLE "TOEIC LR Kinnojyukugo_09_062"
    INDEX 01 01:18:75
  TRACK 63 AUDIO
    TITLE "TOEIC LR Kinnojyukugo_09_063"
    INDEX 01 01:20:27
  TRACK 64 AUDIO
    TITLE "TOEIC LR Kinnojyukugo_09_064"
    INDEX 01 01:20:68
  TRACK 65 AUDIO
    TITLE "TOEIC LR Kinnojyukugo_09_065"
    INDEX 01 01:21:75
  TRACK 66 AUDIO
    TITLE "TOEIC LR Kinnojyukugo_09_066"
    INDEX 01 01:22:36
  TRACK 67 AUDIO
    TITLE "TOEIC LR Kinnojyukugo_09_067"
    INDEX 01 01:25:01
  TRACK 68 AUDIO
    TITLE "TOEIC LR Kinnojyukugo_09_068"
    INDEX 01 01:25:34
  TRACK 69 AUDIO
    TITLE "TOEIC LR Kinnojyukugo_09_069"
    INDEX 01 01:28:23
  TRACK 70 AUDIO
    TITLE "TOEIC LR Kinnojyukugo_09_070"
    INDEX 01 01:28:44
  TRACK 71 AUDIO
    TITLE "TOEIC LR Kinnojyukugo_09_071"
    INDEX 01 01:31:31
  TRACK 72 AUDIO
    TITLE "TOEIC LR Kinnojyukugo_09_072"
    INDEX 01 01:32:32
  TRACK 73 AUDIO
    TITLE "TOEIC LR Kinnojyukugo_09_073"
    INDEX 01 01:33:35
  TRACK 74 AUDIO
    TITLE "TOEIC LR Kinnojyukugo_09_074"
    INDEX 01 01:33:73
  TRACK 75 AUDIO
    TITLE "TOEIC LR Kinnojyukugo_09_075"
    INDEX 01 01:35:56
  TRACK 76 AUDIO
    TITLE "TOEIC LR Kinnojyukugo_09_076"
    INDEX 01 01:36:16
  TRACK 77 AUDIO
    TITLE "TOEIC LR Kinnojyukugo_09_077"
    INDEX 01 01:38:52
  TRACK 78 AUDIO
    TITLE "TOEIC LR Kinnojyukugo_09_078"
    INDEX 01 01:39:15
  TRACK 79 AUDIO
    TITLE "TOEIC LR Kinnojyukugo_09_079"
    INDEX 01 01:41:51
  TRACK 80 AUDIO
    TITLE "TOEIC LR Kinnojyukugo_09_080"
    INDEX 01 01:42:03
  TRACK 81 AUDIO
    TITLE "TOEIC LR Kinnojyukugo_09_081"
    INDEX 01 01:44:37
  TRACK 82 AUDIO
    TITLE "TOEIC LR Kinnojyukugo_09_082"
    INDEX 01 01:45:39
  TRACK 83 AUDIO
    TITLE "TOEIC LR Kinnojyukugo_09_083"
    INDEX 01 01:46:38
  TRACK 84 AUDIO
    TITLE "TOEIC LR Kinnojyukugo_09_084"
    INDEX 01 01:47:02
  TRACK 85 AUDIO
    TITLE "TOEIC LR Kinnojyukugo_09_085"
    INDEX 01 01:48:08
  TRACK 86 AUDIO
    TITLE "TOEIC LR Kinnojyukugo_09_086"
    INDEX 01 01:48:43
  TRACK 87 AUDIO
    TITLE "TOEIC LR Kinnojyukugo_09_087"
    INDEX 01 01:51:02
  TRACK 88 AUDIO
    TITLE "TOEIC LR Kinnojyukugo_09_088"
    INDEX 01 01:51:41
  TRACK 89 AUDIO
    TITLE "TOEIC LR Kinnojyukugo_09_089"
    INDEX 01 01:53:54
  TRACK 90 AUDIO
    TITLE "TOEIC LR Kinnojyukugo_09_090"
    INDEX 01 01:54:06
  TRACK 91 AUDIO
    TITLE "TOEIC LR Kinnojyukugo_09_091"
    INDEX 01 01:56:19
  TRACK 92 AUDIO
    TITLE "TOEIC LR Kinnojyukugo_09_092"
    INDEX 01 01:57:20
  TRACK 93 AUDIO
    TITLE "TOEIC LR Kinnojyukugo_09_093"
    INDEX 01 01:58:26
  TRACK 94 AUDIO
    TITLE "TOEIC LR Kinnojyukugo_09_094"
    INDEX 01 01:58:65
  TRACK 95 AUDIO
    TITLE "TOEIC LR Kinnojyukugo_09_095"
    INDEX 01 01:59:64
  TRACK 96 AUDIO
    TITLE "TOEIC LR Kinnojyukugo_09_096"
    INDEX 01 02:00:28
  TRACK 97 AUDIO
    TITLE "TOEIC LR Kinnojyukugo_09_097"
    INDEX 01 02:03:09
  TRACK 98 AUDIO
    TITLE "TOEIC LR Kinnojyukugo_09_098"
    INDEX 01 02:03:48
  TRACK 99 AUDIO
    TITLE "TOEIC LR Kinnojyukugo_09_099"
    INDEX 01 02:06:23
  TRACK 100 AUDIO
    TITLE "TOEIC LR Kinnojyukugo_09_100"
    INDEX 01 02:06:49
  TRACK 101 AUDIO
    TITLE "TOEIC LR Kinnojyukugo_09_101"
    INDEX 01 02:09:23
  TRACK 102 AUDIO
    TITLE "TOEIC LR Kinnojyukugo_09_102"
    INDEX 01 02:10:23
  TRACK 103 AUDIO
    TITLE "TOEIC LR Kinnojyukugo_09_103"
    INDEX 01 02:11:18
  TRACK 104 AUDIO
    TITLE "TOEIC LR Kinnojyukugo_09_104"
    INDEX 01 02:11:58
  TRACK 105 AUDIO
    TITLE "TOEIC LR Kinnojyukugo_09_105"
    INDEX 01 02:14:52
  TRACK 106 AUDIO
    TITLE "TOEIC LR Kinnojyukugo_09_106"
    INDEX 01 02:15:14
  TRACK 107 AUDIO
    TITLE "TOEIC LR Kinnojyukugo_09_107"
    INDEX 01 02:18:34
  TRACK 108 AUDIO
    TITLE "TOEIC LR Kinnojyukugo_09_108"
    INDEX 01 02:18:73
  TRACK 109 AUDIO
    TITLE "TOEIC LR Kinnojyukugo_09_109"
    INDEX 01 02:22:07
  TRACK 110 AUDIO
    TITLE "TOEIC LR Kinnojyukugo_09_110"
    INDEX 01 02:22:32
  TRACK 111 AUDIO
    TITLE "TOEIC LR Kinnojyukugo_09_111"
    INDEX 01 02:25:42
